<?xml version="1.0" standalone="no"?>
<!DOCTYPE svg PUBLIC "-//W3C//DTD SVG 20010904//EN"
 "http://www.w3.org/TR/2001/REC-SVG-20010904/DTD/svg10.dtd">
<svg version="1.0" xmlns="http://www.w3.org/2000/svg"
 width="1751.000000pt" height="1751.000000pt" viewBox="0 0 1751.000000 1751.000000"
 preserveAspectRatio="xMidYMid meet">
<metadata>
Created by potrace 1.14, written by Peter Selinger 2001-2017
</metadata>
<g transform="translate(0.000000,1751.000000) scale(0.100000,-0.100000)"
fill="#000000" stroke="none">
<path d="M8285 16719 c-2364 -145 -4504 -1299 -5921 -3191 -1197 -1599 -1744
-3576 -1543 -5577 223 -2224 1368 -4243 3169 -5590 1810 -1353 4112 -1868
6350 -1421 1151 230 2249 723 3195 1433 320 241 552 443 855 747 258 257 390
404 601 667 1288 1610 1895 3649 1703 5723 -151 1636 -816 3197 -1896 4450
-1344 1559 -3244 2546 -5268 2735 -377 35 -904 45 -1245 24z m4783 -3403 c144
-75 95 -296 -66 -296 -62 0 -108 25 -137 75 -63 107 9 235 133 235 24 0 55 -6
70 -14z m-1722 -4400 c-684 -2198 -1245 -3998 -1247 -4000 -9 -7 -2982 -527
-2986 -522 -6 5 -2473 7120 -2470 7122 4 2 2452 432 2453 431 1 -1 340 -1104
753 -2452 414 -1347 754 -2457 757 -2465 5 -12 8 -11 15 5 5 11 347 1240 760
2730 413 1491 753 2712 756 2715 4 5 2446 439 2450 436 1 -1 -557 -1801 -1241
-4000z"/>
<path d="M12945 13306 c-95 -42 -114 -154 -42 -234 71 -78 216 -27 234 82 17
105 -97 195 -192 152z m90 -38 c14 -6 24 -16 23 -20 -4 -10 -10 -10 -46 -1
-44 11 -79 -45 -61 -97 11 -31 36 -43 76 -38 31 4 32 -15 1 -26 -60 -21 -108
24 -108 99 0 27 8 44 29 66 32 32 47 35 86 17z"/>
</g>
</svg>
