<svg id="Gradient" height="512" viewBox="0 0 512 512" width="512" xmlns="http://www.w3.org/2000/svg" xmlns:xlink="http://www.w3.org/1999/xlink"><linearGradient id="linear-gradient" gradientUnits="userSpaceOnUse" x1="256" x2="256" y1="496" y2="16"><stop offset="0" stop-color="#12c2e9"/><stop offset=".5" stop-color="#c471ed"/><stop offset="1" stop-color="#f64f59"/></linearGradient><path d="m256 496a31.8 31.8 0 0 1 -22.629-9.372l-144.012-144a32 32 0 0 1 45.258-45.255l89.383 89.372v-338.745a32 32 0 0 1 64 0v338.745l89.38-89.372a32 32 0 1 1 45.258 45.254l-144.012 144a31.8 31.8 0 0 1 -22.626 9.373zm-144.012-191.992a15.993 15.993 0 0 0 -11.315 27.306l144.012 144a16 16 0 0 0 22.63 0l144.012-144a16 16 0 1 0 -22.63-22.627l-103.038 103.028a8 8 0 0 1 -13.659-5.656v-358.059a16 16 0 0 0 -32 0v358.059a8 8 0 0 1 -13.658 5.656l-103.042-103.029a15.957 15.957 0 0 0 -11.312-4.678z" fill="url(#linear-gradient)"/></svg>